<svg width="14" height="18" viewBox="0 0 14 18" fill="none" xmlns="http://www.w3.org/2000/svg">
<path d="M1.31266 11.9855L9.20649 1.18297C9.30675 1.04503 9.4322 0.929083 9.57563 0.841761C9.71905 0.754438 9.87763 0.697467 10.0423 0.674124C10.2069 0.650782 10.3743 0.661521 10.535 0.705733C10.6956 0.749944 10.8462 0.826748 10.9783 0.931745L13.1706 2.66876C13.3024 2.77303 13.413 2.90339 13.4962 3.05236C13.5793 3.20132 13.6333 3.36595 13.6551 3.53674C13.6769 3.70752 13.666 3.88111 13.6231 4.04751C13.5802 4.2139 13.5061 4.3698 13.405 4.50626L5.51121 15.2728L1.31266 11.9855Z" fill="#B4ADA9"/>
<path d="M0.422655 16.0703L0.326137 13.838C0.324863 13.623 0.374598 13.4109 0.47092 13.2207L4.60742 16.4866C4.45549 16.6342 4.27071 16.7403 4.06968 16.7952L2.00143 17.2977C1.8184 17.3459 1.62734 17.351 1.44219 17.3126C1.25704 17.2741 1.08245 17.1932 0.931176 17.0756C0.779902 16.9579 0.65576 16.8067 0.567785 16.6327C0.479809 16.4588 0.430223 16.2667 0.422655 16.0703Z" fill="#B4ADA9"/>
</svg>
